<svg width="200" height="650" viewBox="0 0 200 650" fill="none" xmlns="http://www.w3.org/2000/svg">
<path d="M200 100C200 155.228 155.228 200 100 200C44.7715 200 0 155.228 0 100C0 44.7715 44.7715 0 100 0C155.228 0 200 44.7715 200 100ZM50 100C50 127.614 72.3858 150 100 150C127.614 150 150 127.614 150 100C150 72.3858 127.614 50 100 50C72.3858 50 50 72.3858 50 100Z" fill="#AA4465"/>
<path d="M200 550C200 605.228 155.228 650 100 650C44.7715 650 0 605.228 0 550C0 494.772 44.7715 450 100 450C155.228 450 200 494.772 200 550ZM50 550C50 577.614 72.3858 600 100 600C127.614 600 150 577.614 150 550C150 522.386 127.614 500 100 500C72.3858 500 50 522.386 50 550Z" fill="#AA4465"/>
<path d="M75 151H125V499H75V151Z" fill="#AA4465"/>
</svg>
