<svg width="864" height="99" viewBox="0 0 864 99" fill="none" xmlns="http://www.w3.org/2000/svg">
<rect y="0.5" width="97" height="97" rx="10" fill="#8E0DFF"/>
<path d="M103.912 97.5V30.812H121.448V38.236C123.581 35.3347 126.141 33.116 129.128 31.58C132.115 30.044 135.485 29.276 139.24 29.276C142.483 29.3613 144.915 29.8733 146.536 30.812V46.172C145.256 45.5747 143.848 45.148 142.312 44.892C140.776 44.5507 139.197 44.38 137.576 44.38C134.163 44.38 131.048 45.2333 128.232 46.94C125.416 48.6467 123.155 51.0787 121.448 54.236V97.5H103.912ZM169.135 98.652C164.356 98.652 160.132 97.7987 156.463 96.092C152.794 94.3 149.935 91.868 147.887 88.796C145.839 85.724 144.815 82.1827 144.815 78.172C144.815 71.772 147.204 66.8227 151.983 63.324C156.847 59.74 163.503 57.948 171.951 57.948C177.754 57.948 183.215 58.844 188.335 60.636V55.772C188.335 51.932 187.14 49.0307 184.751 47.068C182.362 45.1053 178.863 44.124 174.255 44.124C171.439 44.124 168.41 44.5933 165.167 45.532C161.924 46.3853 158.17 47.7507 153.903 49.628L147.503 36.7C152.794 34.3107 157.828 32.5187 162.607 31.324C167.471 30.1293 172.335 29.532 177.199 29.532C186.159 29.532 193.114 31.708 198.063 36.06C203.098 40.3267 205.615 46.3853 205.615 54.236V97.5H188.335V92.764C185.604 94.812 182.66 96.3053 179.503 97.244C176.346 98.1827 172.89 98.652 169.135 98.652ZM161.455 77.788C161.455 80.348 162.564 82.396 164.783 83.932C167.002 85.3827 169.946 86.108 173.615 86.108C176.516 86.108 179.204 85.7667 181.679 85.084C184.154 84.316 186.372 83.2067 188.335 81.756V72.028C186.202 71.1747 183.983 70.5347 181.679 70.108C179.375 69.6813 176.9 69.468 174.255 69.468C170.244 69.468 167.087 70.236 164.783 71.772C162.564 73.2227 161.455 75.228 161.455 77.788ZM220.852 97.5V45.404H206.004V30.812H220.852V24.412C220.852 16.9027 223.028 11.1853 227.38 7.25999C231.732 3.24933 238.004 1.244 246.196 1.244C247.988 1.244 249.823 1.32933 251.7 1.49999C253.577 1.67066 255.199 1.96933 256.564 2.396V17.116C254.943 16.7747 253.535 16.5187 252.34 16.348C251.145 16.1773 249.823 16.092 248.372 16.092C245.044 16.092 242.527 16.8173 240.82 18.268C239.199 19.6333 238.388 21.8093 238.388 24.796V30.812H256.564V45.404H238.388V97.5H220.852ZM259.337 97.5V7.89999L276.873 4.95599V97.5H259.337ZM284.187 97.5V30.812H301.723V97.5H284.187ZM292.891 22.876C290.16 22.876 287.814 21.8947 285.851 19.932C283.888 17.9693 282.907 15.6227 282.907 12.892C282.907 10.076 283.888 7.72933 285.851 5.852C287.814 3.88933 290.16 2.908 292.891 2.908C295.707 2.908 298.054 3.88933 299.931 5.852C301.894 7.72933 302.875 10.076 302.875 12.892C302.875 15.6227 301.894 17.9693 299.931 19.932C298.054 21.8947 295.707 22.876 292.891 22.876ZM309.037 97.5V30.812H326.573V35.932C331.352 31.6653 337.154 29.532 343.981 29.532C348.333 29.532 352.216 30.428 355.629 32.22C359.042 33.9267 361.858 36.3587 364.077 39.516C366.808 36.2733 370.008 33.7987 373.677 32.092C377.432 30.3853 381.57 29.532 386.093 29.532C391.128 29.532 395.522 30.684 399.277 32.988C403.117 35.2067 406.104 38.3213 408.237 42.332C410.456 46.2573 411.565 50.8653 411.565 56.156V97.5H394.157V58.716C394.157 54.364 393.005 50.9507 390.701 48.476C388.397 45.916 385.325 44.636 381.485 44.636C378.84 44.636 376.408 45.1907 374.189 46.3C372.056 47.4093 370.221 49.0733 368.685 51.292C368.77 52.06 368.856 52.828 368.941 53.596C369.026 54.364 369.069 55.2173 369.069 56.156V97.5H351.533V58.716C351.533 54.364 350.381 50.9507 348.077 48.476C345.858 45.916 342.829 44.636 338.989 44.636C336.344 44.636 333.954 45.148 331.821 46.172C329.773 47.196 328.024 48.732 326.573 50.78V97.5H309.037ZM439.76 98.652C434.981 98.652 430.757 97.7987 427.088 96.092C423.419 94.3 420.56 91.868 418.512 88.796C416.464 85.724 415.44 82.1827 415.44 78.172C415.44 71.772 417.829 66.8227 422.608 63.324C427.472 59.74 434.128 57.948 442.576 57.948C448.379 57.948 453.84 58.844 458.96 60.636V55.772C458.96 51.932 457.765 49.0307 455.376 47.068C452.987 45.1053 449.488 44.124 444.88 44.124C442.064 44.124 439.035 44.5933 435.792 45.532C432.549 46.3853 428.795 47.7507 424.528 49.628L418.128 36.7C423.419 34.3107 428.453 32.5187 433.232 31.324C438.096 30.1293 442.96 29.532 447.824 29.532C456.784 29.532 463.739 31.708 468.688 36.06C473.723 40.3267 476.24 46.3853 476.24 54.236V97.5H458.96V92.764C456.229 94.812 453.285 96.3053 450.128 97.244C446.971 98.1827 443.515 98.652 439.76 98.652ZM432.08 77.788C432.08 80.348 433.189 82.396 435.408 83.932C437.627 85.3827 440.571 86.108 444.24 86.108C447.141 86.108 449.829 85.7667 452.304 85.084C454.779 84.316 456.997 83.2067 458.96 81.756V72.028C456.827 71.1747 454.608 70.5347 452.304 70.108C450 69.6813 447.525 69.468 444.88 69.468C440.869 69.468 437.712 70.236 435.408 71.772C433.189 73.2227 432.08 75.228 432.08 77.788ZM483.112 97.5V7.89999L500.648 4.95599V97.5H483.112ZM507.962 97.5V30.812H525.498V97.5H507.962ZM516.666 22.876C513.935 22.876 511.589 21.8947 509.626 19.932C507.663 17.9693 506.682 15.6227 506.682 12.892C506.682 10.076 507.663 7.72933 509.626 5.852C511.589 3.88933 513.935 2.908 516.666 2.908C519.482 2.908 521.829 3.88933 523.706 5.852C525.669 7.72933 526.65 10.076 526.65 12.892C526.65 15.6227 525.669 17.9693 523.706 19.932C521.829 21.8947 519.482 22.876 516.666 22.876ZM532.812 97.5V7.89999L550.348 4.95599V58.844L579.148 30.812H598.988L567.5 61.404L600.908 97.5H578.508L550.348 67.036V97.5H532.812ZM608.25 98.78C605.434 98.78 603.002 97.756 600.954 95.708C598.906 93.66 597.882 91.228 597.882 88.412C597.882 85.5107 598.906 83.036 600.954 80.988C603.002 78.94 605.434 77.916 608.25 77.916C611.066 77.916 613.498 78.94 615.546 80.988C617.594 83.036 618.618 85.5107 618.618 88.412C618.618 91.228 617.594 93.66 615.546 95.708C613.498 97.756 611.066 98.78 608.25 98.78ZM654.134 98.78C647.563 98.78 641.633 97.2867 636.342 94.3C631.051 91.228 626.87 87.0893 623.798 81.884C620.726 76.5933 619.19 70.7053 619.19 64.22C619.19 57.6493 620.726 51.7613 623.798 46.556C626.87 41.3507 631.051 37.212 636.342 34.14C641.633 31.068 647.563 29.532 654.134 29.532C659.425 29.532 664.459 30.556 669.238 32.604C674.102 34.652 678.283 37.596 681.782 41.436L671.03 52.828C668.555 50.0973 665.953 48.092 663.222 46.812C660.577 45.4467 657.675 44.764 654.518 44.764C651.105 44.764 648.033 45.6173 645.302 47.324C642.657 49.0307 640.523 51.3347 638.902 54.236C637.366 57.1373 636.598 60.4653 636.598 64.22C636.598 67.804 637.366 71.0893 638.902 74.076C640.523 76.9773 642.742 79.2813 645.558 80.988C648.374 82.6093 651.489 83.42 654.902 83.42C657.889 83.42 660.662 82.8227 663.222 81.628C665.867 80.348 668.385 78.4707 670.774 75.996L681.27 87.004C677.857 90.6733 673.761 93.5747 668.982 95.708C664.203 97.756 659.254 98.78 654.134 98.78ZM714.624 98.78C707.968 98.78 701.952 97.244 696.576 94.172C691.2 91.1 686.933 86.9613 683.776 81.756C680.619 76.5507 679.04 70.7053 679.04 64.22C679.04 57.7347 680.576 51.8893 683.648 46.684C686.805 41.3933 691.072 37.212 696.448 34.14C701.909 31.068 707.968 29.532 714.624 29.532C721.28 29.532 727.296 31.068 732.672 34.14C738.133 37.212 742.4 41.3933 745.472 46.684C748.629 51.8893 750.208 57.7347 750.208 64.22C750.208 70.7053 748.629 76.5507 745.472 81.756C742.4 86.9613 738.176 91.1 732.8 94.172C727.424 97.244 721.365 98.78 714.624 98.78ZM714.624 83.548C718.123 83.548 721.237 82.6947 723.968 80.988C726.784 79.2813 729.003 76.9773 730.624 74.076C732.331 71.0893 733.184 67.804 733.184 64.22C733.184 60.5507 732.331 57.2653 730.624 54.364C729.003 51.4627 726.784 49.1587 723.968 47.452C721.237 45.66 718.123 44.764 714.624 44.764C711.211 44.764 708.096 45.66 705.28 47.452C702.464 49.1587 700.245 51.4627 698.624 54.364C697.003 57.2653 696.192 60.5507 696.192 64.22C696.192 67.804 697.003 71.0893 698.624 74.076C700.245 76.9773 702.464 79.2813 705.28 80.988C708.096 82.6947 711.211 83.548 714.624 83.548ZM754.587 97.5V30.812H772.123V35.932C776.902 31.6653 782.704 29.532 789.531 29.532C793.883 29.532 797.766 30.428 801.179 32.22C804.592 33.9267 807.408 36.3587 809.627 39.516C812.358 36.2733 815.558 33.7987 819.227 32.092C822.982 30.3853 827.12 29.532 831.643 29.532C836.678 29.532 841.072 30.684 844.827 32.988C848.667 35.2067 851.654 38.3213 853.787 42.332C856.006 46.2573 857.115 50.8653 857.115 56.156V97.5H839.707V58.716C839.707 54.364 838.555 50.9507 836.251 48.476C833.947 45.916 830.875 44.636 827.035 44.636C824.39 44.636 821.958 45.1907 819.739 46.3C817.606 47.4093 815.771 49.0733 814.235 51.292C814.32 52.06 814.406 52.828 814.491 53.596C814.576 54.364 814.619 55.2173 814.619 56.156V97.5H797.083V58.716C797.083 54.364 795.931 50.9507 793.627 48.476C791.408 45.916 788.379 44.636 784.539 44.636C781.894 44.636 779.504 45.148 777.371 46.172C775.323 47.196 773.574 48.732 772.123 50.78V97.5H754.587Z" fill="#8E0DFF"/>
</svg>
